<svg xmlns="http://www.w3.org/2000/svg" width="32.566" height="27" viewBox="0 0 32.566 27"><defs><style>.a{opacity:0.5;}.b{fill:#43425d;fill-rule:evenodd;}</style></defs><g class="a" transform="translate(1)"><path class="b" d="M-.076,4.867H7.735V1a1,1,0,0,1,1-1h13.1a1,1,0,0,1,1,1V4.867h7.811a.923.923,0,0,1,.919.919V26.081a.923.923,0,0,1-.919.919H-.081A.923.923,0,0,1-1,26.081V5.786a.923.923,0,0,1,.919-.919ZM5.958,10.76h0a1.069,1.069,0,0,1,1.064,1.064v.659H23.561v-.659a1.067,1.067,0,0,1,1.064-1.064h0a1.069,1.069,0,0,1,1.064,1.064v.659h3.819V6.937H1.083v5.546H4.9v-.659A1.067,1.067,0,0,1,5.966,10.76Zm1.064,3.848v2a1.067,1.067,0,0,1-1.064,1.064h0a1.067,1.067,0,0,1-1.064-1.064v-2H1.075V24.929H29.5V14.608H25.681v2a1.067,1.067,0,0,1-1.064,1.064h0a1.067,1.067,0,0,1-1.064-1.064v-2H7.023ZM9.835,1.971H20.86v2.9H9.835Z"/></g></svg>